<svg xmlns="http://www.w3.org/2000/svg" viewBox="0 0 100 100">
  <rect width="100" height="100" fill="#21353E"/>
  <svg x="14" y="14" width="72" height="72" viewBox="0 0 1807 1920" preserveAspectRatio="xMidYMid meet">
    <path fill="#FAF6EE" d="m1112 12 5.01.84c73.4 12.43 145.36 32.45 213.85 61.81l6.65 2.84C1362.2 87.97 1386.4 99.24 1410 112l2.67 1.43a862 862 0 0 1 39.1 22.24c10.9 6.55 21.73 13.16 32.23 20.33l7.06 4.69L1499 166l2.52 1.68a2230 2230 0 0 1 12.85 8.63C1518 179 1518 179 1518 181l5 2q3.64 2.83 7.2 5.73 4.2 3.39 8.55 6.58a584 584 0 0 1 30.16 24.07q4.28 3.62 8.65 7.12c5.07 4.12 9.87 8.5 14.65 12.93 4.98 4.6 10.12 9 15.29 13.38 3.5 3.19 3.5 3.19 3.5 5.19l4 2c2.82 2.62 5.55 5.27 8.27 8l2.4 2.4 5.01 5.02q3.85 3.87 7.72 7.7l4.87 4.88 2.34 2.34c5.39 5.43 5.39 5.43 5.39 7.66l3 1a221 221 0 0 1 4.84 5.48c2.5 2.93 5.11 5.75 7.72 8.58C1678 325.52 1678 325.52 1678 328h2q2.65 3.15 5.13 6.44c3.39 4.4 6.8 8.7 10.56 12.81C1699 351 1699 351 1699 353h2q2.81 3.78 5.53 7.6c2.67 3.68 5.49 7.2 8.35 10.71A400 400 0 0 1 1731 393l6.38 9c9.62 13.61 9.62 13.61 9.62 16h2q2.44 3.6 4.69 7.31c3.09 5.06 6.2 10.1 9.43 15.06C1766 445 1766 445 1766 447h2a349 349 0 0 1 4.24 7.75c1.73 3.2 3.59 6.29 5.51 9.38A619 619 0 0 1 1798 499l2.1 3.83 2.21 4.05 2.05 3.74C1806 514 1806 514 1807 519q-40.42 10.82-80.9 21.4l-32.61 8.55-19.8 5.2-20.65 5.41a13787 13787 0 0 1-52.45 13.69l-3.44.89-6.96 1.8-3.47.9q-26.53 6.87-53 13.97a3279 3279 0 0 1-37.4 9.76 3242 3242 0 0 0-36 9.5 2077 2077 0 0 1-44.7 11.52l-3.62.89-3.1.75c-2.9.77-2.9.77-5.96 1.87-2.94.9-2.94.9-7.94.9-2.04-1.91-2.04-1.91-4.06-4.62A313 313 0 0 0 1380 608a552 552 0 0 1-12.96-15.6c-2.04-2.4-2.04-2.4-4.8-5.08C1360 585 1360 585 1360 583h-2q-3.55-3.95-7-8l-3-3v-2l-4-2a317 317 0 0 1-7.75-7.69A258 258 0 0 0 1320 545l-4.81-4.37A380 380 0 0 0 1299 527l-3.43-2.81A442 442 0 0 0 1267 503l-3-2.07c-20.7-14.05-42.4-27.18-65-37.93l-2.86-1.36C1088.33 410.36 968.92 397.2 852 420l-3.27.63C765.79 437.07 684.26 474.5 618 527l-2.56 2a618 618 0 0 0-17.25 14.32q-4.3 3.6-8.69 7.05A104 104 0 0 0 580 559l-6.69 6.81-3.45 3.52C567 572 567 572 565 572l-2 4q-2.37 2.54-4.87 4.94a75 75 0 0 0-7.33 7.88C549 591 549 591 547 591l-1 3h-2l-2 4c-5.65 8-5.65 8-8 8l-2 4a151 151 0 0 1-3.87 4.75c-10.6 12.81-20.05 26.33-29.13 40.25l-2.3 3.48C482.03 680.9 468.82 704.46 458 729l-1.18 2.66C431.79 788.36 417.39 848.3 412 910l-.29 3.11c-7.26 89.76 8.65 181.37 44.29 263.89l1.26 2.94a413 413 0 0 0 19.3 38.48 583 583 0 0 1 4 7.33c5.88 10.86 12.49 21.05 19.44 31.25l5.19 7.88c8.21 12.3 17.44 23.69 26.81 35.12l2.52 3.11a329 329 0 0 0 13.44 15.6 100 100 0 0 1 3.99 4.77A90 90 0 0 0 559 1331l4.36 4.4 4.95 4.97 2.48 2.5c4.9 4.93 9.93 9.6 15.21 14.13l4.88 4.44c3.95 3.56 8 6.93 12.19 10.22q3.37 2.7 6.67 5.5A349 349 0 0 0 642 1401l4.85 3.27A434 434 0 0 0 670 1419l7.13 4.31A455 455 0 0 0 720 1446l3.63 1.73a550 550 0 0 0 151.66 46.82c102.1 16.65 207.92 3.81 302.71-37.55l6.19-2.5c11.81-4.93 23.03-11.08 34.14-17.41q4.59-2.6 9.23-5.09a431 431 0 0 0 48.44-31l2.98-2.18c16.34-12.07 31.87-25.27 46.9-38.92a187 187 0 0 1 5.43-4.65c2.74-2.29 5.2-4.7 7.69-7.25l4-3.94c4-4.06 4-4.06 6.88-7.56 2.12-2.5 2.12-2.5 4.12-2.5l2-4h2l2-4q2.47-2.84 5.06-5.56A304 304 0 0 0 1380 1303l2.06-2.52a144 144 0 0 0 10-13.54l1.79-2.79c3.82-3.82 8.05-3.36 13.14-2.38l4.39 1.26 4.99 1.4q2.56.75 5.2 1.5l15.43 4.4q10.24 2.85 20.53 5.55a5091 5091 0 0 1 44.47 12.06l8.03 2.2 16.63 4.57 40.46 11.1 3.94 1.08a40171 40171 0 0 0 97.44 26.61l27.53 7.5q30.4 8.26 60.73 16.76 18.12 5.08 36.32 9.83c4.78 1.25 9.33 2.57 13.92 4.41-1.66 6.15-4.94 11.46-8 17l-6 11.06-1.5 2.78A443 443 0 0 1 1781 1441l-2.82 4.75a823 823 0 0 1-21.86 34.8 865 865 0 0 1-31.52 44.72 521 521 0 0 0-6.67 9.1 516 516 0 0 1-26.78 33.84c-2.07 2.45-4 5.02-5.91 7.6-2.44 3.19-2.44 3.19-4.44 3.19l-2 4q-2.03 2.43-4.19 4.75l-2.43 2.66-2.38 2.59q-5.12 5.8-10.12 11.69c-2.53 2.9-5.16 5.59-7.88 8.31l-3.69 4.31C1645 1621 1645 1621 1643 1621v2h-2l-1 3h-2l-1 3h-2v2h-2l-1 3h-2l-1 3h-2v2h-2l-1 3q-2.72 2.41-5.49 4.78c-2.96 2.62-5.73 5.4-8.51 8.22-4.5 4.55-9.13 8.84-14 13l-4.62 4.19A762 762 0 0 1 1542 1713l-4.09 3.15A738 738 0 0 1 1511 1736l-3.23 2.27c-24.5 17.06-49.63 33.3-75.77 47.73l-7.5 4.25c-18.22 10.22-36.53 19.99-55.5 28.75l-3.87 1.8A1010 1010 0 0 1 1201 1880l-6.17 1.69c-52.67 13.87-107.6 21.88-161.83 26.31l-3.62.3A920 920 0 0 1 914 1910l-4.19-.18c-42.02-1.92-84.3-6.41-125.65-14.23q-5.43-1-10.87-1.97a841 841 0 0 1-110.48-27.96c-28.12-9.04-55.61-19.49-83-30.54l-3.84-1.54c-8.8-3.59-17.4-7.51-25.97-11.58l-4.52-2.08a522 522 0 0 1-26.16-13.1q-5.76-3.07-11.58-6A716 716 0 0 1 460 1774l-2.79-1.68A802 802 0 0 1 398 1733l-2.68-1.92c-8.58-6.17-16.94-12.64-25.32-19.08l-3.63-2.78a824 824 0 0 1-15-11.72C347 1694 347 1694 344 1692v-2l-4-2q-2.58-2.22-5.06-4.56a193 193 0 0 0-11.13-9.63c-6.31-5.09-12.14-10.67-18.01-16.26a187 187 0 0 0-7.78-6.88C295 1648 295 1648 295 1646l-4-2q-2.55-2.28-4.98-4.72l-2.84-2.82-2.93-2.96-2.98-2.96-2.82-2.82-2.59-2.6C270 1623 270 1623 270 1621l-3-1v-2h-2q-3.55-3.95-7-8l-4-4v-2l-3-1a214 214 0 0 1-7-8c-10.65-12.68-10.65-12.68-16.25-18.75A204 204 0 0 1 216 1562l-6.06-7.56C198 1539.52 198 1539.52 198 1537h-2q-2.25-2.87-4.31-5.87a786 786 0 0 0-11.44-15.94c-16.96-23.46-33.28-47.8-47.45-73.05a207 207 0 0 0-6.96-11.15c-2.8-4.56-5.3-9.28-7.84-13.99l-3.37-6.2a918 918 0 0 1-16.86-32.2q-1.77-3.6-3.6-7.17C83.13 1349.89 73.88 1327.48 65 1305l-1.34-3.36c-18.28-46.16-31.8-94.03-42-142.58q-.77-3.54-1.66-7.06c-8.47-41.6-13.96-83.66-17-126l-.26-3.68a912 912 0 0 1-2.05-65.88v-4.78C.74 924.33 1.63 897.23 4 870l.44-5.07C10.8 793.85 25.46 724 47 656l1.08-3.4C58.55 619.71 70.98 587.06 86 556l2.07-4.45a613 613 0 0 1 14.58-29.1q3.14-5.96 6.1-12.01A212 212 0 0 1 118 494q2.16-3.93 4.3-7.9c9.26-17 19.4-33.27 30.02-49.45q4.6-7.05 9.1-14.19c2.1-3.27 4.33-6.45 6.58-9.62 2.44-3.46 4.8-6.97 7.19-10.46A602 602 0 0 1 193 378l2.6-3.4q3.68-4.8 7.4-9.6l2.68-3.46a581 581 0 0 1 16.7-20.46q3.59-4.25 7.06-8.58a305 305 0 0 1 13.75-15.47c8.71-9.38 8.71-9.38 11.81-14.03h2l2-4 3-1 2-4q3.92-4.21 8-8.27l2.4-2.4 5.02-5.01q3.87-3.85 7.7-7.72l4.88-4.87 2.34-2.34c5.43-5.39 5.43-5.39 7.66-5.39l1-3q3.94-3.58 8-7c4.17-3.53 8.19-7.08 12-11 3-3 3-3 5-3v-2a86 86 0 0 1 4.69-3.94 514 514 0 0 0 12.94-10.69A385 385 0 0 1 361 205l2.88-2.23A1154 1154 0 0 1 404 173l4.75-3.37c18.18-12.66 36.77-25.04 56.11-35.85a229 229 0 0 0 9.39-5.66c8.08-5.01 16.41-9.55 24.75-14.12l3.03-1.69C554.36 83.31 611.12 61.22 668 43l5.68-1.82C805.61.1 946.13-8.94 1112 12"/> <path fill="#F37933" d="m1028 434 4.53.67A621 621 0 0 1 1093 447l3.29.83c15.62 4 30.6 9.27 45.66 15.03a510 510 0 0 0 17.18 5.98C1162 470 1162 470 1163 472q3.5 1.02 7 2 3.23 1.48 6.38 3.13a406 406 0 0 0 15.87 7.68 324 324 0 0 1 22.82 12 165 165 0 0 0 7.18 3.8c4.16 2.1 7.9 4.78 11.75 7.39 7.54 4.85 7.54 4.85 11 6v2h3v2l4 2c4.64 2.94 9.07 6.19 13.5 9.44q4.2 3.07 8.44 6.12l5.25 3.82 2.61 1.87c6.2 4.52 6.2 4.52 6.2 6.75h3q2.57 2.43 5 5a460 460 0 0 0 7.31 6.6l5.32 4.74c4.94 4.41 9.72 8.92 14.37 13.66l5 5 10 10 2.69 2.56C1343 598 1343 598 1345 602h2c6.74 7.2 6.74 7.2 8 11l3 1q3.07 3.94 6 8c5.8 7.53 11.68 14.9 18 22 4 4.72 4 4.72 4 7a392 392 0 0 0 25.94-6.19 1064 1064 0 0 1 30.75-8.15l19.43-4.97 10.37-2.64 9.84-2.51q13.65-3.5 27.22-7.31c7.29-2.01 14.62-3.87 21.95-5.73 18.26-4.66 18.26-4.66 26.5-7 9.6-2.7 19.25-5.16 28.9-7.63a10940 10940 0 0 0 44.9-11.6l9.42-2.45 5.5-1.43q5.6-1.47 11.2-3c4.24-1.16 8.46-2.18 12.77-3.08l3.63-.76 2.68-.55c1.82 11.44-.75 19.3-7.56 28.56l-2.69 3.68L1664 612l-5.12 7.19q-5.58 7.8-11.29 15.5C1646 637 1646 637 1644 641l-2.12 2.06c-4.17 4.26-7.45 9.1-10.88 13.94l-3.11 4.36c-8.62 12.1-8.62 12.1-10.89 16.64l-4 4a100 100 0 0 0-3 6l2 1a173 173 0 0 1 3.63 7.13 376 376 0 0 0 8.18 15.87c5.99 11.11 12.2 23.01 16.19 35a868 868 0 0 0 32.23-2.97l30.93-3.24 4.32-.45a1916 1916 0 0 0 30.7-3.46c13.74-1.6 27.1-1.96 37.82 8.12 6.06 10.41 8.8 21.32 11.75 32.94l1.55 5.96 3.15 12.14c2.34 9.03 4.79 18.03 7.24 27.02l2.45 9.04 1.02 3.76c2.81 10.5 2.45 18.9-1.16 29.14h-2l-2 4c-3.78 3.6-6.94 5.67-12 7v2a207 207 0 0 1-8 3c-4.2 1.7-8.38 3.48-12.56 5.25l-3.52 1.49a540 540 0 0 0-21.29 9.58 359 359 0 0 1-13.2 5.68 211 211 0 0 0-19.45 9.14 74 74 0 0 1-10 3.75c-16.27 5.3-16.27 5.3-18.23 13.05.32 5.82 1.19 11.33 2.25 17.06q.18 4.22.13 8.44l-.03 4.02c-.2 9.19-.65 18.36-1.1 27.54l3.66 1.13a229 229 0 0 1 18.71 7.75l3.5 1.56c9.06 4.06 9.06 4.06 13.33 6.06 7.5 3.5 7.5 3.5 10.8 3.5l3 3c3.4 1.6 6.78 3.11 10.25 4.56l2.82 1.21c4.9 2.08 9.76 3.9 14.93 5.23v2l3.04.8c6.64 2.02 12.72 5.2 18.96 8.2l2.95 1.36c7.55 3.56 14.1 7.1 16.05 15.64l1.13 2.63c2.71 10.48 0 20.27-2.86 30.39l-1.16 4.29q-1.85 6.75-3.73 13.5l-3.66 13.35-2.4 8.68a522 522 0 0 0-5 19.1l-.76 3.18q-.97 4.09-1.9 8.17c-3.71 10.5-12.47 19.43-23.66 21.71-6.99.16-13.76-.27-20.71-1.01l-3.09-.33q-5-.52-10-1.07l-7-.74-18.33-1.95-39.66-4.22-6.28-.67-5.53-.6c-4.4-.41-4.4-.41-8.4-.41-1.46 4.32-2.9 8.58-4 13h-2l-1.17 3.83c-1.96 5.54-4.4 10.7-7.08 15.92l-1.47 2.92a498 498 0 0 1-9.94 18.67c-1.47 2.91-2.65 5.47-3.34 8.66a93 93 0 0 0 7 9c5.17 6.7 9.89 13.67 14.6 20.68 2.4 3.32 2.4 3.32 4.4 4.32a538 538 0 0 1 4 7l2 2 2.38 3.63c2.87 4.36 5.96 8.52 9.12 12.68q7.18 9.53 14.13 19.25l1.82 2.53c5.73 8.1 7.2 15.02 7.55 24.91-5.5 3.67-12.58-.27-18.56-2-10.1-2.91-10.1-2.91-14.44-4a1930 1930 0 0 1-12.04-3.34l-4.84-1.35a5797 5797 0 0 0-36.89-10.15q-3.83-1.04-7.64-2.14c-4.74-1.35-9.51-2.62-14.28-3.9q-13.12-3.51-26.2-7.1l-5.83-1.6-11.46-3.16a625 625 0 0 0-25.1-6.44A160 160 0 0 1 1484 1281q-7.55-2.22-15.12-4.31l-4.3-1.2q-17.75-4.93-35.58-9.49c-22.49-5.77-22.49-5.77-30.69-8.44-5.31-1.56-5.31-1.56-9.31-.56a272 272 0 0 0-8 10l-4.31 5.25q-5.34 6.52-10.57 13.13l-2.74 3.46C1361 1292 1361 1292 1358 1297l-8 7-2 4h-2v2l-3.31 2.81C1339 1316 1339 1316 1336 1321q-3.95 3.55-8 7a374 374 0 0 0-4.37 4.44C1320 1336 1320 1336 1318 1336v2a206 206 0 0 1-5 4l-2.25 2.25C1300 1355 1300 1355 1297 1355v2a135 135 0 0 1-6.25 5l-3.52 2.69C1284 1367 1284 1367 1280 1369v2l-5 2v2q-3.98 2.55-8 5l-3 3q-3.1 2.09-6.25 4.06a552 552 0 0 0-15.12 9.94 245 245 0 0 1-20.36 12.09C1219 1411 1219 1411 1216 1414a342 342 0 0 1-7 3q-7.47 3.91-14.9 7.92c-4.1 2.08-4.1 2.08-6.1 2.08l-1 2a416 416 0 0 1-8.7 3.65c-3.82 1.56-7.56 3.3-11.31 5.04-31.2 14.27-64.52 24.07-97.99 31.31l-5.67 1.28a414 414 0 0 1-33.27 5.9l-3.41.48c-21.51 2.77-42.88 3.69-64.55 3.66q-6.2 0-12.4.04c-37.81.09-76.91-3.6-113.53-13.26q-4.46-1.17-8.93-2.23c-31.69-7.73-64.37-18.57-93.24-33.87-11.4-5.85-11.4-5.85-16-7v-2l-4-1c-26.39-11.84-50.87-29.48-73.85-46.87q-4.26-3.21-8.55-6.39l-4.29-3.18-3.88-2.87c-3.43-2.69-3.43-2.69-6.07-5.35C615 1354 615 1354 610 1351v-2h-2l-4.8-5.65a67 67 0 0 0-7.7-6.85A86 86 0 0 1 583 1324a550 550 0 0 0-7-7c-3-3-3-3-4.87-5.37-2.13-2.63-2.13-2.63-4.88-5.32C564 1304 564 1304 564 1302h-2q-2.57-3.23-5.05-6.54c-1.95-2.46-1.95-2.46-4.26-4.71-3.5-3.58-6.38-7.5-9.38-11.5-6.09-8.14-6.09-8.14-8.31-9.25l-3-6a156 156 0 0 0-4.06-5.37c-13.12-17.17-13.12-17.17-15.94-25.63h-2l-2-4-3.31-5.69c-5.73-9.97-10.96-20.2-16.21-30.44l-3.7-7.12C454.08 1126.2 438.1 1059.47 433 993l-.29-3.41c-.87-11.44-.95-22.87-.96-34.34v-3.17c-.01-17.92.98-35.6 2.89-53.42.5-5 .8-10.02 1.1-15.04C436 881 436 881 437 880q.6-3.36 1.1-6.74c5.29-34.59 14.3-67.28 25.9-100.26l1.08-3.08a282 282 0 0 1 7.67-19.04l1.33-3.04a594 594 0 0 1 19.62-40.5q2.33-4.37 4.47-8.84C500 695 500 695 502 694l.88-3.31C504 687 504 687 508 683v-2h2l2-5a359 359 0 0 1 14.08-21.06C528 652 528 652 530 647h2a401 401 0 0 0 4.82-6.9c9.41-13.43 20.35-25.81 31.18-38.1l3.75-4.31c5.9-6.69 5.9-6.69 8.25-6.69l2-4 5-4 3.44-3.94A75 75 0 0 1 600 570l1-2h2l1-3q2.83-2.34 5.81-4.5c5.9-4.4 11.25-9.14 16.53-14.25C629 544 629 544 634 542v-2q3.94-2.54 7.93-5.01a86 86 0 0 0 8-5.93c7.3-5.97 15.24-10.91 23.2-15.93C678 510 678 510 680 508l6-3 2-2a214 214 0 0 1 6.25-3.12c4.76-2.35 9.38-4.8 13.94-7.5 55.71-32.25 120.23-50.53 183.73-58.84q3.81-.5 7.61-1.05c41.77-5.9 86.82-4.67 128.47 1.51M869 548l-5 1q-3.88 1.05-7.76 2.13a225 225 0 0 1-6.67 1.68C809.4 562.24 770.77 580 736 602l-3.91 2.43-3.9 2.45-3.59 2.24C722 611 722 611 722 613l-2.5.63C715 615.4 711.8 618 708 621l-2.48 1.84c-6.4 4.8-6.4 4.8-7.52 8.16l-2.69.88c-4.87 1.65-7.96 4.77-11.56 8.37a170 170 0 0 1-7.2 6.7 442 442 0 0 0-17.17 16.49l-3.05 3-2.87 2.87-2.6 2.59C649 674 649 674 649 676l-3 1c-4.07 4.29-6.8 7.48-9 13l-3 1v3l-4 2c-2 2.33-2 2.33-4.12 5.25-.4.53-.4.53-2.36 3.24L621 708l-2.77 3.73-2.73 3.7-2.53 3.44C611 722 611 722 610 727l-3 1c-3.98 5.8-7.44 11.93-11 18l-2.44 4.16c-4.56 7.93-8.64 16-12.44 24.32-1.76 3.74-3.6 7.4-5.49 11.09A224 224 0 0 0 566 808.3l-1.57 4.2A385 385 0 0 0 553 850l-1.2 4.6q-1.45 5.7-2.8 11.4l-.77 3.17a349 349 0 0 0-4.3 23.33q-.23 1.5-.49 3.03c-2.87 18.69-3.8 37.27-3.76 56.14q0 5.25-.04 10.48c-.05 16.14 1.26 31.86 3.36 47.85l.7 5.44c3.02 22.36 8.3 44.14 15.3 65.56l1.79 5.57a376 376 0 0 0 22.2 53.41q1.83 3.66 3.59 7.35c3.78 7.91 8.14 15.42 12.67 22.92l1.86 3.1c4.52 7.4 4.52 7.4 7.89 9.65l3 7 3 3 1.81 3.19A90 90 0 0 0 625 1208h2l2 5q2.85 3.58 5.88 7c6.01 6.86 6.01 6.86 8.38 9.94C645 1232 645 1232 647 1232l2 4c3.54 4.65 7.57 8.21 12 12l4 5h2v2q3.95 3.55 8 7l5 5c6.68 6 6.68 6 9 6v2c4 3 4 3 6 3v2q3.93 3.09 8 6l2.88 2.17 2.93 2.2 2.77 2.1C714 1294 714 1294 717 1294v2c7.32 6 7.32 6 11 6v2q4.53 2.83 9.19 5.44l5.16 2.93L747 1315l5 3h3l1 2c3.88 2.9 7.43 4.72 11.81 6.75l4.63 2.14q2.23 1.05 4.56 2.11l3.75 1.8A362 362 0 0 0 855 1359l5.07 1.27c55.1 13.71 113.13 14.38 168.93 4.73l3.29-.56A349 349 0 0 0 1079 1353l5.46-1.72c11.99-3.9 24.11-7.94 35.54-13.28v-2l2.47-.26c18.71-3.91 39.78-18.18 55.53-28.74l3.95-2.54 4.17-2.71 3.89-2.52c2.99-2.23 2.99-2.23 3.99-5.23l2.5-.75c4.95-1.77 8.42-4.97 12.5-8.25l5-3c3-3 3-3 3-5l4-1a151 151 0 0 0 6.63-6c6.2-5.92 6.2-5.92 8.37-7v-2l4-2 1-3h2v-2l4-2 2-4 4-2a229 229 0 0 0 16-17l2.6-3.04q4.21-4.96 8.4-9.96l2.48-2.95c5.52-6.7 5.52-6.7 5.52-10.05h2c2.36-2.65 3.87-4.62 5-8 4.93-1.1 9.77-1.1 14.8-1.03l9.83.12 11.14.13 5.96.07q9.22.1 18.45.17l3.15.02 12.86.09q18.24.11 36.47.36 14.5.2 29 .25 7.68.02 15.34.16 8.55.13 17.1.12l5.12.15c8.63-.1 13.07-.57 18.2-7.88a164 164 0 0 0 3.58-6.73q1.59-2.59 3.22-5.15 4.41-7.43 8.78-14.85l2.3-3.83a182 182 0 0 0 11.16-22.67c1.54-3.5 1.54-3.5 4.54-8.5l2-5 1.7-4.16c13.9-34.27 24.68-70.05 29.3-106.84l.41-3.18c4.31-34.65 4.45-70.22-.41-104.82l-.45-3.3c-7.95-56.5-26.48-115.06-58.55-162.7h-2l-1-5q-2.1-3.45-4.44-6.75l-2.43-3.48c-3.52-4.57-6.06-3.9-11.66-3.93l-4.9-.03-5.42-.01-5.68-.03-15.44-.07-16.13-.08-30.56-.14-34.78-.16L1294 716l-1-5-3-1-2-5q-2.23-3.15-4.62-6.19l-2.7-3.43L1278 692l-2.37-3.07c-5.39-6.93-5.39-6.93-7.63-6.93l-2-4a345 345 0 0 0-20-21l-2.4-2.42c-28.28-28.07-62.37-51.2-97.6-69.58l-2.78-1.46A318 318 0 0 0 1103 566l-5.33-2.02c-28.9-10.87-59.05-18.07-89.67-21.98l-4.52-.59A402 402 0 0 0 869 548"/> 
  </svg>
</svg>
