<svg xmlns="http://www.w3.org/2000/svg" width="1811" height="2406"><path fill="#fefefe" d="M991 2q4.8.14 9.62.02c11.88-.13 23.61.6 35.44 1.6l3.17.27c81.57 6.88 161.27 24.26 238.56 51q3.07 1.06 6.17 2.08c20.24 6.85 40.08 15.25 59.58 23.94 5.43 2.4 10.66 4.7 16.46 6.09v2l2.57.8a92 92 0 0 1 10.29 4.46l3.88 1.9 8.07 3.96 3.86 1.89 3.54 1.74C1395 105 1395 105 1397 105v2l2.63.82c8.36 2.92 15.93 7.45 23.37 12.18q9.02 5.27 18.18 10.28a406 406 0 0 1 16.94 10.28c11.14 7.03 11.14 7.03 16.06 9.78C1477 152 1477 152 1478 154l5 2q4.01 2.62 7.94 5.38c5.6 3.9 11.21 7.76 16.93 11.5 7.33 4.97 14.28 10.5 21.32 15.87l2.8 2.13a2954 2954 0 0 1 25.82 19.87 408 408 0 0 0 8.44 6.38A83 83 0 0 1 1575 225c16.23 15.09 16.23 15.09 22.63 19.5 3.76 2.8 6.35 5.92 9.37 9.5q3.98 3.53 8 7l7 7 3.5 2.94c3.5 3.06 3.5 3.06 6.66 6.69 4.1 4.67 8.41 9.02 12.84 13.37a281 281 0 0 1 16 17q2.67 2.91 5.38 5.81c4.44 4.83 8.65 9.79 12.74 14.91A50 50 0 0 0 1684 334v2h2v2h2a590 590 0 0 1 7 9l4 4 3 5a191 191 0 0 0 4.06 5 588 588 0 0 1 14.94 19l3.63 4.69C1727 388 1727 388 1727 390h2a520 520 0 0 1 4 7q2.97 4.02 6 8c7 9.6 7 9.6 7 12h2a320 320 0 0 1 3.34 6.08c1.9 3.34 4 6.49 6.16 9.67a605 605 0 0 1 13.89 21.77c2.67 4.35 5.36 8.66 8.17 12.92 4.7 7.29 8.66 15.02 12.77 22.65q2.73 5.01 5.67 9.91v2l2 1 2 7 2 1c3 5.3 3 5.3 3 9a3311 3311 0 0 1-38.94 10.63l-2.92.77q-24.15 6.43-48.38 12.57-13.4 3.4-26.76 6.94l-5.32 1.41-14.49 3.88-3.93 1.06c-3.26.74-3.26.74-7.26.74l-1 2c-2.33.62-4.68 1.12-7.04 1.59a527 527 0 0 0-26.3 6.41l-4.17 1.12-12.87 3.44L1576 581l-3.43.9c-4.28 1.11-8.13 2.1-12.57 2.1l-1 2q-4.99 1.06-10 2c-4.74 1.15-9.46 2.41-14.18 3.66l-4.03 1.06-12.66 3.34-8.58 2.26-12.05 3.18-3.6.95-3.17.84q-3.36.87-6.73 1.71l-8.94 2.38-23.32 6.2-11.63 3.08-3.62.97a106 106 0 0 1-14.25 2.95c-3.24.42-3.24.42-4.24 2.42-4.6 1.32-9.3 2.12-14 3l-5.06 1.06c-5.26-.08-6.14-1.81-8.94-6.06l-2-1-3-5a278 278 0 0 0-5.37-6.44L1374 602l-2.85-3.28C1369 596 1369 596 1369 594h-2a281 281 0 0 1-7-8 185 185 0 0 0-11-12c-11-11-11-11-13.57-13.61a134 134 0 0 0-6.74-6.08C1325 551 1325 551 1325 549l-4-2a80 80 0 0 1-9-8c-5.75-5.12-11.52-10.2-18-14.37-4-2.63-4-2.63-6.33-4.99-6.53-6.46-14.62-11.54-22.55-16.14-4.12-2.5-4.12-2.5-4.12-4.5l-5-2q-4.35-2.72-8.62-5.56c-8.06-5.33-8.06-5.33-11.38-6.44v-2l-2.57-.74c-3.8-1.4-6.88-3.23-10.3-5.38A265 265 0 0 0 1199 464l-5.36-2.56a565 565 0 0 0-33.52-14.44l-3.5-1.38a173 173 0 0 0-15.38-5.3C1137 439 1137 439 1136 437q-3-.56-6-1-3.84-1.02-7.64-2.14l-4.5-1.3-9.22-2.7c-24.36-7.06-49.04-11.3-74.08-15.11l-3.38-.53c-6.13-.92-12-1.3-18.18-1.22l-1-1c-64.55-6.62-130.43.69-193 17l-3.26.85a467 467 0 0 0-39.5 12.3C768.29 445 768.29 445 765 445l-1 2q-3.3 1.31-6.69 2.44A101 101 0 0 0 744 455l-10 4c-61.6 26.6-61.6 26.6-77 42l-6.99 4.14c-13.43 8.28-13.43 8.28-18.01 12.86-6.67 5-6.67 5-9 5v2q-3.07 2.03-6.16 4.02c-5.61 3.9-10.67 8.52-15.84 12.98l-3.27 2.72C595 547 595 547 593 549l-3 2.56a335 335 0 0 0-22.75 21.35C565 575 565 575 563 575l-2 4q-2.6 2.72-5.31 5.31A81 81 0 0 0 545 597a281 281 0 0 1-5 5c-14.81 15.62-14.81 15.62-19 24h-2l-2 4a588 588 0 0 1-5.94 8.19c-53.12 72.85-84.92 159.11-96.31 248.25l-.46 3.58a532 532 0 0 0-3.6 65.3v3.67c.23 91.86 22.12 188.4 70 267.6C482 1229 482 1229 482 1231l2 1q1.68 2.84 3.25 5.75c4.3 7.7 9.13 14.95 14.09 22.23 4.56 6.73 4.56 6.73 5.66 10.02h2l1 3 2 1 1.81 3.25c2.19 3.75 2.19 3.75 4.69 6.25 2.9 2.9 4.48 5.95 6.5 9.5 2.57 3.13 5.14 6.14 8 9l2.81 3.88A43 43 0 0 0 544 1314a370 370 0 0 1 4 6q2.48 2.51 5 5 5.24 5.59 10.43 11.21c9.8 10.4 9.8 10.4 12.57 11.79v2l4 2 5 5 7 5q3.2 3.18 6.31 6.44c3.03 2.88 6.28 5.15 9.69 7.56q3.51 2.99 7 6l3 2v2l5 2q3.28 2.36 6.44 4.88c4.09 3.23 8.2 6.26 12.56 9.12l10.07 7.07C655 1411 655 1411 658 1412v2l5 2 8 5q3.9 2.16 7.83 4.27 5.46 3.01 10.86 6.1A452 452 0 0 0 714 1444l2.75 1.34c28.76 13.96 28.76 13.96 37.25 15.66v2l2.48.3c4.22.84 7.9 2.33 11.9 3.95a265 265 0 0 0 21.3 7.45q4.63 1.4 9.24 2.88c36.13 11.46 73.43 18.45 111.08 22.42l3.44.36c79.41 7.93 158.69-4.35 233.8-30.1a223 223 0 0 1 9.76-3c4-1.26 4-1.26 5-3.26q4.5-1.53 9-3 5.24-2.3 10.44-4.69c9.35-4.31 9.35-4.31 11.56-4.31l1-2c3.07-1.14 6.18-2.05 9.31-3 2.69-1 2.69-1 3.69-3q3.17-1.83 6.44-3.5c23.72-12.44 23.72-12.44 31.87-18 3.69-2.5 3.69-2.5 8.69-4.5l1-2 4-2 2-2 5-3 2-2 4.88-3.06c7.45-4.7 14.88-9.7 21.12-15.94l6.97-5.55c4.66-3.77 9.2-7.7 13.73-11.62a519 519 0 0 1 6.57-5.54 104 104 0 0 0 7.73-7.29c3.49-3.55 6.96-6.96 10.75-10.19 4.54-4.07 8.57-8.41 12.64-12.94a226 226 0 0 1 7.61-7.87 323 323 0 0 0 15.4-17.8q3.05-3.75 6.14-7.43l3.77-4.52 3.55-4.23c3.14-4.02 3.14-4.02 5.3-7.97 1.84-3.05 1.84-3.05 5.84-4.05a49 49 0 0 1 6.23 1.46l3.82 1.04 4.14 1.16 4.3 1.18 13.63 3.79 9.03 2.48L1466 1299l3.16.88 2.83.79 4.88 1.35 4 1.12q3.55.97 7.13 1.86 10 2.7 20 5.44l2.95.8a8169 8169 0 0 1 50.33 13.9l3.66 1.02q3.51.96 7.06 1.84l7.21 2 4.42 1.24 4.74 1.32q17.41 4.87 34.88 9.5 15.3 4.06 30.5 8.38 16.2 4.6 32.5 8.87 26.15 6.9 52.22 14.08l21.12 5.76 23.99 6.55q5.55 1.5 11.08 3.03l3.4.91c7.71 2.13 7.71 2.13 9.94 4.36-3.75 7.88-3.75 7.88-6 9l-2 5c-2.75 6.88-2.75 6.88-5 8l-2 5c-6.88 12.97-14 26.12-22.23 38.3-1.77 2.7-1.77 2.7-2.77 5.7h-2l-2 5c-6.04 9.85-12.57 19.4-19 29q-1.56 2.39-3.2 4.84a124 124 0 0 1-7.8 10.16l-1 3-4 4-1 3-5 5-1.75 2.66c-3.75 5.56-8.17 10.6-12.45 15.76-2.8 3.58-2.8 3.58-3.8 6.58q-2.46 2.55-5 5a410 410 0 0 0-5.56 6.44l-2.82 3.3c-2.62 3.26-2.62 3.26-4.84 6.67-1.78 2.59-1.78 2.59-3.78 2.59l-2 4q-3.45 4.05-7 8l-3.5 4.06q-3.59 4.04-7.44 7.82C1660 1605 1660 1605 1660 1607q-3.96 3.55-8 7a160 160 0 0 0-10.16 10.66c-4.1 4.64-8.38 9.03-12.78 13.4l-2.3 2.32A284 284 0 0 1 1612 1654l-4 4a229 229 0 0 1-12 11q-4.75 4.4-9.46 8.84C1584 1680 1584 1680 1582 1680v2q-3.51 2.92-7.1 5.74-4.08 3.2-8.09 6.51c-30.35 24.86-30.35 24.86-41.24 32-2.57 1.75-2.57 1.75-3.57 3.75-3.3 2.01-6.34 3.78-10 5v2c-2.27 1.62-2.27 1.62-5.25 3.44-3.4 2.08-6.55 4.16-9.75 6.56h-2v2a407 407 0 0 1-8.2 4.78c-5.92 3.46-11.6 7.28-17.3 11.06-3.5 2.16-3.5 2.16-5.5 2.16v2a303 303 0 0 1-7.81 4.3c-5.1 2.71-10.04 5.66-15 8.58l-6.31 3.68-5.88 3.44-8.37 4.88c-.54.3-.54.3-3.22 1.86-2.41 1.26-2.41 1.26-4.41 1.26l-1 2a190 190 0 0 1-7.56 3.88l-4.2 2.05-4.24 2.07-4.4 2.26c-3.6 1.74-3.6 1.74-5.6 1.74l-1 2a154 154 0 0 1-7.12 3.19 445 445 0 0 0-15.94 7.12 822 822 0 0 1-20.25 9.13l-3.1 1.36c-7.35 3.2-7.35 3.2-9.59 3.2l-1 2a395 395 0 0 1-9 3 401 401 0 0 0-8.82 3.46l-6.18 2.49c-7.68 3.05-7.68 3.05-11 3.05l-1 2a355 355 0 0 1-10 3q-3.08 1-6.16 2.04l-3.15 1.07-6.47 2.2c-8 2.69-8 2.69-10.22 2.69l-1 2q-4.07 1.08-8.16 2.05a306 306 0 0 0-12.86 3.55c-98.42 28.79-98.42 28.79-127.87 28.34l-3.11.06-1 2q-4.54.42-9.1.72c-4.03.29-8 .74-12 1.25l-4.24.54-8.6 1.12c-6.21.78-12.25 1.48-18.52 1.37H1045l-1 2q-5 .07-10 0-3.07.17-6.15.4c-36.05 2.7-72.27 3.13-108.39 1.85-8.82-.3-17.63-.3-26.46-.25v-2l-2.51.08c-11.58.18-22.92-.94-34.43-2.2l-3.1-.34c-44.15-4.83-87.65-12.73-130.9-22.86-2.93-.65-5.89-1.2-8.85-1.75C709 1881 709 1881 708 1879q-4-.52-8-1-4.75-1.26-9.45-2.7l-5.51-1.67-11.3-3.44a1070 1070 0 0 1-33.44-10.8C636 1858 636 1858 631 1857v-2l-3.87-.75c-5.3-1.3-10.08-3.2-15.13-5.25h-3v-2l-4.12-1.14c-6.82-2.05-13.32-4.8-19.88-7.55l-7.25-3-3.2-1.35C572 1833 572 1833 570 1833v-2l-4.12-1.37L561 1828l-3.5-1.06c-2.5-.94-2.5-.94-3.5-2.94q-3-1.04-6-2a612 612 0 0 1-10.31-4.5l-5.43-2.4C528 1813 528 1813 527 1811a89 89 0 0 0-10-3v-2l-2.5-.75c-10.8-3.86-10.8-3.86-12.5-7.25l-2.49-.8c-4.62-1.58-8.5-3.96-12.7-6.45-18.2-10.67-18.2-10.67-24.75-13.37C459 1776 459 1776 455 1772a339 339 0 0 0-9.44-5.87 663 663 0 0 1-25.98-16.72c-6.42-4.33-6.42-4.33-8.58-5.41v-2l-4-1q-4.13-2.95-8.12-6.06c-7.67-5.94-7.67-5.94-9.88-5.94l-5-5a401 401 0 0 0-7.81-6 812 812 0 0 1-25.19-20l-6.25-5.12-2.52-2.08a218 218 0 0 0-6.23-4.8q-3.4-3.02-6.8-6.07-2.56-2.24-5.26-4.3C322 1674 322 1674 322 1672l-4-2c-3.66-2.72-6.78-5.78-10-9l-3-2.5a113 113 0 0 1-8-7.5l-6.83-6.76-12.1-12-3.9-3.88-3.59-3.55C268 1622 268 1622 268 1620l-3-1q-2.05-2.46-4-5l-5-5a522 522 0 0 1-18-20l-3-3a416 416 0 0 1-4.31-5.25c-8.98-11.04-8.98-11.04-12.69-14.75l-6-8c-10.38-13.38-10.38-13.38-13-16a639 639 0 0 1-6-8l-2.84-3.8-3.03-4.08-2.93-3.92c-2.2-3.2-2.2-3.2-2.2-5.2h-2a351 351 0 0 1-4.94-7.71c-3.58-5.71-7.44-11.23-11.25-16.79A878 878 0 0 1 142 1459l-2.4-3.87a559 559 0 0 1-11.63-19.47l-1.7-3.03-3.53-6.26-1.7-3.03-1.55-2.74a419 419 0 0 0-4.49-7.6v-2l-2-1a173 173 0 0 1-3.62-7.12 516 516 0 0 0-10.91-20.97C97 1379 97 1379 97 1377l-2-1q-1.05-2.99-2-6-2.77-5.86-5.62-11.69A550 550 0 0 1 73 1326l-2.81-6.56C68 1314 68 1314 66.3 1308.3 65 1304 65 1304 63 1303l-1-7-2-1c-3-9-3-9-3-13l-2-1-1-7-2-1q-1.1-3.78-2.08-7.58c-1-3.74-2.15-7.4-3.34-11.1A1080 1080 0 0 1 27 1185l-1-4a1933 1933 0 0 1-2.83-13.11l-2.2-10.23-1.06-4.93-.96-4.49q-.95-4.24-2.02-8.46a137 137 0 0 1-2.5-14.4c-1.38-10.1-1.38-10.1-1.89-13.05-.73-4.48-1.3-8.98-1.88-13.49l-.39-2.96-1.2-9.38c-2.97-22.96-2.97-22.96-4.23-31.46-.69-4.73-1.15-9.39-1.34-14.16q-.38-9.25-.98-18.48a941 941 0 0 1-1.78-61.6q.01-7.2-.01-14.38a868 868 0 0 1 3.96-84.6l.5-5.2c7.25-71.35 21.85-142.23 45.04-210.15C52 641 52 641 52 638h2l1-8h2l.3-2.52c.8-4 2.18-7.42 3.76-11.17C64 609.33 64 609.33 64 606h2l1-5q2.2-5.62 4.56-11.19l1.37-3.25Q78.8 572.7 85 559l2.37-5.33a476 476 0 0 1 15.36-31.42q2.98-5.63 5.77-11.37C111 506 111 506 113 505l2-5a226 226 0 0 1 2.94-5.44 162 162 0 0 0 4.5-8.56c1.87-3.6 4.08-6.96 6.29-10.37 2.93-4.7 5.72-9.47 8.52-14.25a510 510 0 0 1 15.8-25.24C155 433 155 433 155 431l4-4v-2l4-4 2-4h2l2-5a209 209 0 0 1 4.88-6.94c8.25-11.32 8.25-11.32 10.12-15.06h2l2-4c10.17-14.6 21.43-28.37 32.76-42.07q3.9-4.75 7.74-9.56C237.6 323 237.6 323 240 323l2-4q2.01-2.36 4.13-4.62C250 310 250 310 250 308l5-3 3-4h2v-3q3.93-3.59 8-7a87 87 0 0 0 7.5-8.06A47 47 0 0 1 283 276a84 84 0 0 0 7.44-8c2.63-3.08 5.42-5.45 8.56-8l2.38-2.37c3.38-3.4 7.01-6.47 10.62-9.63l2.63-2.62c2.65-2.66 5.48-5 8.37-7.38l3-3q4.19-3.45 8.4-6.84C337 226 337 226 340 223h2v-2c2.78-2.43 5.75-4.56 8.72-6.76q5.98-4.56 11.78-9.37c8-6.52 16.2-12.74 24.5-18.87l3.34-2.5c7.28-5.37 7.28-5.37 10.66-6.5v-2q3.07-1.7 6.15-3.35c3.18-1.84 6.07-3.92 9.04-6.09 8.74-6.34 17.84-12.06 27-17.8q4-2.51 8.01-5.05a708 708 0 0 1 35.1-20.52q5.55-3.07 10.99-6.37c3.93-2.35 7.84-4.5 11.96-6.5a1427 1427 0 0 0 23.56-11.81C539.78 94 539.78 94 542 94l1-2 5-2q12.44-5.14 24.73-10.64C576 78 576 78 578 78l1-2q3.17-1.35 6.44-2.5 11.38-4.17 22.68-8.56c7.96-3.07 15.91-6.1 23.96-8.91q4.57-1.62 9.1-3.34C646 51 646 51 649 51l1-2q4.3-1.14 8.64-2.18c5.09-1.24 10.06-2.86 15.05-4.44A845 845 0 0 1 777 17l3.63-1.06c5.2-1.45 10.43-1.82 15.8-2.15l3.57-.23 3.38-.18C806 13 806 13 807 11q4.06-.42 8.13-.7c4.4-.34 8.74-.85 13.11-1.39a1209 1209 0 0 1 60.25-6l4.51-.33 3.97-.27C900 2 900 2 902 1q3.7-.08 7.4-.02c9.5.05 19-.09 28.51-.27L961.5.28q6.99-.15 13.99-.26l4.37-.1 4-.05 3.54-.07C990 0 990 0 991 2"/><path fill="#f07e3d" d="m1028 435 4.53.67A621 621 0 0 1 1093 448l3.29.83c15.62 4 30.6 9.27 45.66 15.03a510 510 0 0 0 17.18 5.98C1162 471 1162 471 1163 473q3.5 1.02 7 2 3.23 1.48 6.38 3.13a406 406 0 0 0 15.87 7.68 324 324 0 0 1 22.82 12q3.64 2.03 7.39 3.86C1225 503 1225 503 1226 505l5 2a176 176 0 0 1 5.63 3.56c2.84 1.88 5.13 3.36 8.37 4.44v2h3v2l4 2c4.64 2.94 9.07 6.19 13.5 9.44q4.2 3.07 8.44 6.12l5.25 3.82 2.61 1.87c6.2 4.52 6.2 4.52 6.2 6.75h3q2.57 2.43 5 5a460 460 0 0 0 7.31 6.6l5.32 4.74c4.94 4.41 9.72 8.92 14.37 13.66l5 5 10 10 2.69 2.56C1343 599 1343 599 1345 603h2c6.74 7.2 6.74 7.2 8 11l3 1q3.07 3.94 6 8c5.8 7.53 11.68 14.9 18 22 4 4.72 4 4.72 4 7 6.3-1.14 12.46-2.61 18.65-4.26l5.11-1.35L1415 645a7850 7850 0 0 1 67.68-17.56q13.47-3.45 26.85-7.2c7.3-2.02 14.63-3.88 21.97-5.74 18.26-4.66 18.26-4.66 26.5-7 11.8-3.34 23.7-6.3 35.59-9.34 25.63-6.56 25.63-6.56 30.41-8.16q3.69-.98 7.39-1.93l4.53-1.16 4.77-1.22 4.6-1.19 18.35-4.68 4.38-1.11 3.93-1c3.05-.71 3.05-.71 5.05-.71 4.08 8.16-.62 18.87-5.1 25.78l-3.65 4.72-7.25 9.5q-1.96 2.73-3.87 5.5a516 516 0 0 1-9.43 13.06C1646 638 1646 638 1644 642l-2.25 2.19c-3.52 3.6-6 7.6-8.75 11.81a1201 1201 0 0 0-10.25 13.75l-2.02 2.73C1619 675 1619 675 1617 679l-4 4a100 100 0 0 0-3 6l2 1a173 173 0 0 1 3.63 7.13 376 376 0 0 0 8.18 15.87c5.99 11.11 12.2 23.01 16.19 35a868 868 0 0 0 32.23-2.97l30.93-3.24 4.32-.45a1916 1916 0 0 0 30.7-3.46c13.74-1.6 27.1-1.96 37.82 8.12 6.06 10.41 8.8 21.32 11.75 32.94l1.55 5.96 3.15 12.14c2.34 9.03 4.79 18.03 7.24 27.02l2.45 9.04 1.02 3.76c2.81 10.5 2.45 18.9-1.16 29.14h-2l-2 4c-3.78 3.6-6.94 5.67-12 7v2a207 207 0 0 1-8 3c-4.2 1.7-8.38 3.48-12.56 5.25l-3.54 1.5a543 543 0 0 0-20.65 9.26 905 905 0 0 1-14.26 6.5q-3.75 1.68-7.48 3.4a200 200 0 0 1-19.42 7.82c-18.27 6.42-18.27 6.42-20.55 14.32.28 5.85 1.24 11.22 2.46 16.95q.2 4.22.13 8.44l-.03 4.02c-.2 9.19-.65 18.36-1.1 27.54l3.68 1.14c6.32 2.2 12.35 4.86 18.44 7.61l3.67 1.64q8.86 3.96 17.65 8.11c7.38 3.48 14.88 6.7 22.37 9.94l3.82 1.65 3.58 1.53 3.23 1.39c2.56.99 2.56.99 4.56.99v2l3.04.8c6.64 2.02 12.72 5.2 18.96 8.2l2.95 1.36c7.55 3.56 14.1 7.1 16.05 15.64l1.13 2.63c2.71 10.48 0 20.27-2.86 30.39l-1.16 4.29q-1.85 6.75-3.73 13.5l-3.66 13.35-2.4 8.68a522 522 0 0 0-5 19.1l-.76 3.18q-.97 4.09-1.9 8.17c-3.71 10.5-12.47 19.43-23.66 21.71-6.99.16-13.76-.27-20.71-1.01l-3.09-.33q-5-.52-10-1.07l-7-.74-18.33-1.95-39.66-4.22-6.28-.67-5.53-.6c-4.4-.41-4.4-.41-8.4-.41-1.46 4.32-2.9 8.58-4 13h-2l-1.17 3.83c-1.96 5.54-4.4 10.7-7.08 15.92l-1.47 2.92a498 498 0 0 1-9.94 18.67c-1.47 2.91-2.65 5.47-3.34 8.66a93 93 0 0 0 7 9c5.17 6.7 9.89 13.67 14.6 20.68 2.4 3.32 2.4 3.32 4.4 4.32a538 538 0 0 1 4 7l2 2 2.38 3.63c2.87 4.36 5.96 8.52 9.12 12.68q7.18 9.53 14.13 19.25l1.82 2.53c5.73 8.1 7.2 15.02 7.55 24.91-6.33 4.22-17.42-1.7-24.29-3.72-4.71-1.28-4.71-1.28-7.71-1.28v-2l-3.52-.38a98 98 0 0 1-12.1-2.51l-4.31-1.14-9.12-2.45A968 968 0 0 1 1587 1310a832 832 0 0 0-17.69-4.87q-13.12-3.52-26.2-7.12l-5.83-1.6-11.46-3.15a625 625 0 0 0-25.1-6.44A160 160 0 0 1 1484 1282q-7.55-2.22-15.12-4.31l-4.3-1.2a1548 1548 0 0 0-30.42-8.15c-12-3.12-23.95-6.5-35.85-10.03-5.31-1.31-5.31-1.31-9.31-.31a272 272 0 0 0-8 10l-4.31 5.25q-5.34 6.52-10.57 13.13l-2.74 3.46C1361 1293 1361 1293 1358 1298l-8 7-2 4h-2v2l-3.31 2.81C1339 1317 1339 1317 1336 1322q-3.95 3.55-8 7a374 374 0 0 0-4.37 4.44C1320 1337 1320 1337 1318 1337v2a206 206 0 0 1-5 4l-2.31 2.31c-5.96 5.96-12.53 11.23-19.07 16.53a274 274 0 0 0-6.68 5.72C1282 1370 1282 1370 1280 1370v2l-5 2v2q-3.98 2.55-8 5l-3 3q-3.1 2.09-6.25 4.06a552 552 0 0 0-15.12 9.94 245 245 0 0 1-20.36 12.09C1219 1412 1219 1412 1216 1415a195 195 0 0 1-7.56 3.88l-4.33 2.11-4.11 2.01-5.87 3c-4.13 2-4.13 2-6.13 2l-1 2a416 416 0 0 1-8.7 3.65c-3.82 1.56-7.56 3.3-11.31 5.04-31.2 14.27-64.52 24.07-97.99 31.31l-5.67 1.28a414 414 0 0 1-33.27 5.9l-3.41.48c-21.53 2.77-42.92 3.69-64.6 3.66q-6.23 0-12.44.04c-18.7.05-37.03-1.25-55.61-3.36l-6.59-.7c-15.7-1.72-31.01-4.81-46.41-8.3l-3.8-.85c-35.15-7.94-71.25-19.24-103.2-36.15l-6.44-3.25-2.74-1.4q-2.98-1.42-6.03-2.68a183 183 0 0 1-14.04-7.1l-2.9-1.6c-21.6-11.91-42.04-25.97-61.7-40.84q-4.26-3.21-8.55-6.39l-4.29-3.18-3.88-2.87c-3.43-2.69-3.43-2.69-6.07-5.35C615 1355 615 1355 610 1352v-2h-2l-4.8-5.65a67 67 0 0 0-7.7-6.85c-4.75-3.78-8.57-7.85-12.5-12.5q-3.8-3.85-7.67-7.6a93 93 0 0 1-6.33-7.4l-2.75-2.69C564 1305 564 1305 564 1303h-2q-2.57-3.23-5.05-6.54c-1.95-2.46-1.95-2.46-4.26-4.71-3.5-3.58-6.38-7.5-9.38-11.5-6.09-8.14-6.09-8.14-8.31-9.25l-3-6a156 156 0 0 0-4.06-5.37c-13.12-17.17-13.12-17.17-15.94-25.63h-2l-2-4-3.31-5.69c-5.72-9.96-10.95-20.19-16.2-30.4l-3.82-7.41A371 371 0 0 1 471 1156l-1.38-3.39c-20.59-50.93-32.4-103.85-36.62-158.61l-.29-3.41c-.87-11.44-.95-22.87-.96-34.34v-3.17c-.01-17.92.98-35.6 2.89-53.42.5-5 .8-10.02 1.1-15.04C436 882 436 882 437 881q.6-3.36 1.1-6.74c7.75-50.62 21.98-103.1 46.74-148.3 2.23-4.09 4.33-8.23 6.41-12.4l1.96-3.93q1.68-3.4 3.33-6.82c3.26-6.71 3.26-6.71 5.46-7.81l.88-3.31C504 688 504 688 508 684v-2h2l2-5q1.66-2.76 3.44-5.44a86 86 0 0 0 5.37-9.25L522 660h2l2-4 3-4 2-4 4-4q2.02-2.99 4-6c9.14-12.1 18.98-23.63 29-35l3.75-4.31c5.9-6.69 5.9-6.69 8.25-6.69l2-4 5-4 3.44-3.94A75 75 0 0 1 600 571l1-2h2l1-3q2.83-2.34 5.81-4.5c5.9-4.4 11.25-9.14 16.53-14.25C629 545 629 545 634 543v-2q3.96-2.55 7.97-5.03c3.49-2.26 6.61-4.88 9.82-7.52 5.4-4.12 11.12-7.8 16.81-11.53 6.98-4.57 6.98-4.57 10.22-7.22C681 508 681 508 686 506l2-2a214 214 0 0 1 6.25-3.12c4.76-2.35 9.38-4.8 13.94-7.5 55.71-32.25 120.23-50.53 183.73-58.84q3.81-.5 7.61-1.05c41.77-5.9 86.82-4.67 128.47 1.51M803 569q-2.26.9-4.59 1.8A384 384 0 0 0 736 603l-3.91 2.43-3.9 2.45-3.59 2.24C722 612 722 612 722 614l-2.48.63c-4.53 1.76-7.9 4.32-11.77 7.25l-4.27 3.18C700 628 700 628 698 632q-3 1.02-6 2a78 78 0 0 0-8.25 7.25c-3.36 3.36-6.9 6.5-10.44 9.66-5.31 4.8-5.31 4.8-5.31 7.09l-4 2a273 273 0 0 0-7.75 7.5l-4.1 4.1C649 675 649 675 649 677l-3 1c-4.07 4.29-6.8 7.48-9 13l-3 1v3l-4 2c-2 2.33-2 2.33-4.12 5.25-.4.53-.4.53-2.36 3.24L621 709l-2.77 3.73-2.73 3.7-2.53 3.44C611 723 611 723 610 728l-3 1c-3.98 5.8-7.44 11.93-11 18l-2.44 4.16c-4.56 7.93-8.64 16-12.44 24.32-1.76 3.74-3.6 7.4-5.49 11.09A224 224 0 0 0 566 809.3l-1.57 4.2A385 385 0 0 0 553 851l-1.2 4.6q-1.45 5.7-2.8 11.4l-.77 3.17a349 349 0 0 0-4.3 23.33q-.23 1.5-.49 3.03c-2.87 18.69-3.8 37.27-3.76 56.14q0 5.25-.04 10.48c-.05 16.14 1.26 31.86 3.36 47.85l.7 5.44c3.02 22.36 8.3 44.14 15.3 65.56l1.79 5.57a345 345 0 0 0 16.37 41.56 486 486 0 0 1 3.68 7.92c19.42 42.58 19.42 42.58 28.16 46.95l1.44 3.38C612 1191 612 1191 615 1194l1.81 3.19A90 90 0 0 0 625 1209h2l2 5q2.85 3.58 5.88 7c6.01 6.86 6.01 6.86 8.38 9.94C645 1233 645 1233 647 1233l2 4c3.54 4.65 7.57 8.21 12 12l4 5h2v2q3.95 3.55 8 7l2.35 2.37c3 2.97 6.13 5.7 9.34 8.44l3.45 2.96C693 1279 693 1279 695 1279v2q3.93 3.09 8 6l2.88 2.17 2.93 2.2 2.77 2.1C714 1295 714 1295 717 1295v2c7.32 6 7.32 6 11 6v2a144 144 0 0 0 29 16l1 2q4.43 2.24 8.94 4.31c11.06 5.15 11.06 5.15 15.93 7.63 19.87 9.93 41.77 17.14 63.13 23.06l3.88 1.1c74.34 19.8 155.82 18.2 229.12-5.1l5.45-1.72c11.99-3.89 24.12-7.94 35.55-13.28v-2l2.47-.26c18.71-3.91 39.78-18.18 55.53-28.74l3.95-2.54 4.17-2.71 3.89-2.52c2.99-2.23 2.99-2.23 3.99-5.23l2.44-.75c5.27-1.85 9.1-4.88 13.56-8.25v-2l4-2c3-2 3-2 3-4l4-1a151 151 0 0 0 6.63-6c6.2-5.92 6.2-5.92 8.37-7v-2l4-2 1-3h2v-2l4-2 2-4 4-2a229 229 0 0 0 16-17l2.6-3.04q4.21-4.96 8.4-9.96l2.48-2.95c5.52-6.7 5.52-6.7 5.52-10.05h2c2.36-2.65 3.87-4.62 5-8 4.93-1.1 9.77-1.1 14.8-1.03l9.83.12 11.14.13 5.96.07q9.22.1 18.45.17l3.15.02 12.86.09q18.24.11 36.47.36 14.5.2 29 .25 7.68.02 15.34.16 8.55.13 17.1.12l5.12.15c8.63-.1 13.07-.57 18.2-7.88a164 164 0 0 0 3.58-6.73q1.59-2.59 3.22-5.15 4.41-7.43 8.78-14.85l2.3-3.83a182 182 0 0 0 11.16-22.67c1.54-3.5 1.54-3.5 4.54-8.5l2-5 1.7-4.16c13.9-34.27 24.68-70.05 29.3-106.84l.41-3.18c4.31-34.65 4.45-70.22-.41-104.82l-.45-3.3c-7.95-56.5-26.48-115.06-58.55-162.7h-2l-1-5q-2.1-3.45-4.44-6.75l-2.43-3.48c-3.52-4.57-6.06-3.9-11.66-3.93l-4.9-.03-5.42-.01-5.68-.03-15.44-.07-16.13-.08-30.56-.14-34.78-.16L1294 717l-1-5-3-1-2-5q-2.23-3.15-4.62-6.19l-2.7-3.43L1278 693l-2.37-3.07c-5.39-6.93-5.39-6.93-7.63-6.93l-2-4a345 345 0 0 0-20-21l-2.4-2.42c-28.28-28.07-62.37-51.2-97.6-69.58l-2.78-1.46A318 318 0 0 0 1103 567l-5.33-2.02c-28.9-10.87-59.05-18.07-89.67-21.98l-4.52-.59C935.86 534.27 866.13 543.65 803 569"/><path fill="#fbfbfa" d="M1590 2039c4.2 5.6 3.4 10.87 3.37 17.61v4.3q.02 7.15-.01 14.3v10.23l-.02 27.84q-.03 14.55-.02 29.08 0 24.44-.04 48.87-.04 25.14-.04 50.28v15.57l-.03 50.8-.01 17.34a24749 24749 0 0 1-.06 50.91v7.73l-.01 3.17c-.34 7.73-1.7 10.26-8.13 14.97-8.27 3.3-16.99 2.33-25.81 2.31l-5.8.05h-5.6l-5.1.01c-8.67-.69-13.3-2.78-17.69-10.37-1.09-4.35-1.14-8-1.16-12.5l-.03-5.39-.01-5.93-.03-6.24-.07-16.95-.08-17.71-.14-33.54-.16-38.19-.32-78.55-2.87 3c-3.13 3-3.13 3-5.13 3v2c-7.48 7-7.48 7-10 7l-1 3q-3.48 2.55-7 5l-2.75 2.75C1492 2207 1492 2207 1489 2208v2q-2.53 2.24-5.19 4.31a88 88 0 0 0-8.55 7.48C1473 2224 1473 2224 1471 2224v2q-3.8 3.15-7.65 6.23c-4.9 4.05-9.5 8.41-14.13 12.76A408 408 0 0 1 1438 2255l-5.25 4.69-2.45 2.2a210 210 0 0 0-6.3 6.11h-2v2l-6 4-2.75 2.75C1411 2279 1411 2279 1409 2279v2a90 90 0 0 1-4.69 3.88c-5.7 4.54-11.01 9.4-16.35 14.37-9.42 8.75-9.42 8.75-11.96 8.75v2a236 236 0 0 1-7 6 327 327 0 0 0-10.7 9.56c-10.17 9.57-10.17 9.57-15.3 10.44-6.57-2.96-11.51-8.06-16.68-12.99-2.32-2.01-2.32-2.01-4.32-2.01v-3l-4-2a162 162 0 0 1-12-11c-7.69-7-7.69-7-10-7l-7-8a281 281 0 0 0-8-7l-10.68-9.16a571 571 0 0 1-17.63-15.72 279 279 0 0 0-15.28-13.1c-3.35-2.8-6.33-5.94-9.41-9.02a473 473 0 0 0-8.29-6.8c-4.68-3.8-9.24-7.7-13.46-12.01-2.25-2.19-2.25-2.19-6.25-4.19l-5-6q-3.96-3.55-8-7l-5.31-4.87a300 300 0 0 0-14.48-12.32C1165 2181 1165 2181 1163 2179v3.24q.11 39.02.15 78.04.03 18.88.08 37.75.05 16.44.05 32.9 0 8.7.04 17.41.03 8.2.02 16.4l.03 8.88v10.01c-.75 8.89-3.01 14.2-10.37 19.37-8.01 2-16.6 1.23-24.81 1.25l-5.84.06-5.62.02-5.14.03c-7.85-.61-12.06-2.96-16.59-9.36-1.77-5.3-1.15-11.03-1.15-16.58v-4.31l-.03-14.4-.02-10.3-.05-45.51-.04-48.4v-15.71l-.07-50.62q-.05-25.96-.06-51.93 0-14.59-.03-29.17-.04-13.7-.02-27.43l-.02-10.08q-.02-6.86 0-13.73l-.03-4.06.03-3.71v-3.2c.63-3.64 1.87-5.29 4.49-7.86 5.61-1.55 7.88-1.8 12.69 1.63l3.31 3.37 3.44 2.75c2.56 2.25 2.56 2.25 2.56 4.25l5 2q2.58 2.41 5 5 3.08 2.89 6.19 5.75l3.16 2.92c2.65 2.33 2.65 2.33 4.65 3.33v2l4 2c3.66 2.72 6.78 5.78 10 9q3.48 3.02 7 6l4.06 3.56q3.66 3.2 7.44 6.25c2.5 2.19 2.5 2.19 2.5 4.19l4 2q3.18 2.78 6.25 5.69l6.75 6.31c4.16 3.8 8.13 7.08 13 10l4 5q3.96 3.55 8 7l7.9 7.18c2.1 1.82 2.1 1.82 4.1 2.82v2l4 2c9 6.63 9 6.63 9 9h2v2l4 2c3.38 3 6.63 6.13 9.9 9.25 3.1 2.75 3.1 2.75 7.1 4.75l2.25 2.75c3.2 3.78 6.77 6.33 10.75 9.25a406 406 0 0 1 5 5c5.96 5.66 11.95 11.24 18.38 16.38 6.11 4.9 11.75 10.28 17.43 15.68 3.19 2.94 3.19 2.94 6.19 4.94q4.91 4.79 9.77 9.64c3.23 2.36 3.23 2.36 8.23.36q2.56-2.44 5-5l7-6 4-4c6.7-6 6.7-6 9-6v-2c4.47-4 4.47-4 7-4v-2c2.62-2.4 5.28-4.7 8-7q1.74-1.5 3.5-3.06l3.75-3.25 3.58-3.12c3.17-2.57 3.17-2.57 7.17-4.57v-2a93 93 0 0 1 4.81-4 256 256 0 0 0 21.19-19q6.64-5.92 13.56-11.5A149 149 0 0 0 1457 2145q3.98-3.53 8-7c7.78-6.78 7.78-6.78 10-9l7-6 3.81-3.37c3.19-2.63 3.19-2.63 5.19-2.63l2-4c2.14-1.94 2.14-1.94 4.81-4 5.65-4.5 10.93-9.3 16.2-14.23 4.62-4.28 9.37-8.4 14.17-12.47 17.13-14.6 17.13-14.6 24.82-22.3l3.88-2.81c4.12-3.19 4.12-3.19 6.12-5.69 2.83-3.54 6.35-5.84 10-8.5l3.19-2.75c5.35-4.28 8.17-4.93 13.81-1.25"/><path fill="#ed7d3c" d="m192.54 2038.78 5.9-.04 22.56-.1 30.93-.08q19.75-.04 39.51-.17 13.91-.07 27.82-.09 8.31 0 16.61-.07 9.25-.07 18.5-.04l5.56-.07 5.07.03 4.41-.01c5 1.2 5.86 3.14 7.59 7.86-2.57 6.42-4.53 8.13-10.92 9.99l-3.72 1.1-4.05 1.16-4.22 1.23-13.65 3.96-9.38 2.73a8004 8004 0 0 1-55.2 15.86 1722 1722 0 0 0-31.86 9.4 727 727 0 0 1-75.4 18.58c-22.52 4.34-41.57 11.61-58.9 27.04-5.58 4.95-5.58 4.95-7.7 4.95l-2 5h-2l-2 4-2 2-2 3-3.25 4.44c-18.1 25.95-23.23 61.14-14.75 91.56l1.07 3.83c2.66 8.67 6.36 16.37 10.93 24.17l1.68 2.93c2.19 3.76 4.23 6.98 7.32 10.07l3.31 3.88A78 78 0 0 0 108 2306l2.19 2.31c16.78 16.04 39.15 23.53 61.65 26.97 30.27 4.8 59.7 14.2 89 22.99q23.47 7.01 47.03 13.67 15.32 4.36 30.5 9.12a490 490 0 0 0 20.2 5.84q3.3.9 6.6 1.75c7.5 2.02 7.5 2.02 10.83 5.35.58 5.3.3 6.59-3 11-5.08 1.2-10.14 1.12-15.33 1.1l-5.07-.02-5.52-.03-5.84-.02-15.84-.06-13.26-.06-31.3-.15q-16.1-.09-32.2-.14a18273 18273 0 0 1-44.23-.2q-9.22-.02-18.46-.09h-5.47c-31.86-.24-64.53-8.98-91.48-26.33l-2.83-1.79q-4.1-2.58-8.17-5.21l-3.25-2.06C44 2348.27 44 2348.27 44 2340h-2c-21-26.77-21-26.77-21-34l-2-1c-7.14-15.03-12.72-30.69-16-47l-.85-3.69C-4 2224.03.65 2193.31 9 2164l1.45-5.2a79 79 0 0 1 5.3-12.55L20 2138q2.7-5.55 5.36-11.11C27 2124 27 2124 31 2120l5.52-7.64c13.15-17.78 13.15-17.78 20.48-23.36l1-2h2l1-2 4-2v-2l5-3 1-2q3.48-2.02 7-4c8.44-5.44 8.44-5.44 12-9l5-2 4.27-2.14c29.75-14.87 60.22-19.95 93.27-20.08"/><path fill="#fbfaf9" d="M701.86 2041.87h17.11c9.5 0 19 .12 28.51.45l5.04.17c9.02 1.02 12.45 4.09 17.48 11.51l3 4a341 341 0 0 1 3.7 6.43 728 728 0 0 0 12.24 20.7l4.45 7.32 2.3 3.75 13.51 22.21a807 807 0 0 1 11.35 19.23A16 16 0 0 0 824 2142l4.05 7.5c5.5 9.88 11.64 19.4 17.6 28.99q8.4 13.5 16.6 27.14l1.99 3.28c4.64 7.74 4.64 7.74 5.76 11.09l2 1q1.94 3.17 3.75 6.44c9.38 16.69 9.38 16.69 12.25 19.56q2.13 3.89 4.23 7.79c3.12 5.66 6.52 11.14 9.9 16.65l6.75 11.07q5.86 9.68 11.6 19.42c2.36 3.82 4.9 7.42 7.52 11.07a668 668 0 0 1 4.3 7.94c2.54 4.58 5.35 8.99 8.16 13.4C942 2337 942 2337 942 2339h2l2 5 2 2q1.82 3.08 3.57 6.22a846 846 0 0 0 15.51 25.98l2.19 3.58 1.96 3.2c5.64 9.63 5.64 9.63 3.77 15.02-4.57 5.49-10.83 4.56-17.39 4.5h-3.67l-7.7-.03q-5.85-.03-11.7-.01-3.75 0-7.49-.03l-3.5.01c-14.34-.16-23.68-4.13-31.55-16.44l-2.73-5.05a367 367 0 0 0-9.96-17.01l-3.68-6.02-1.84-3q-2.55-4.16-5.07-8.34c-.5-.8-.5-.8-2.97-4.9l-2.64-4.36C861 2336 861 2336 859 2334q-2.18-3.96-4.32-7.93c-2.63-4.8-5.5-9.46-8.37-14.13l-3.68-6.02-1.84-3q-2.55-4.16-5.07-8.34l-2.97-4.9-2.64-4.36C828 2282 828 2282 826 2280q-2.17-3.93-4.3-7.89c-2.75-5.03-5.76-9.9-8.76-14.8l-1.82-2.97q-3.74-6.13-7.55-12.22c-3.58-5.74-7.07-11.52-10.57-17.3a2627 2627 0 0 0-15.81-25.82c-6.17-9.94-12.2-19.95-18.19-30-3-5-3-5-5-7l-1-4-2-1a178 178 0 0 1-3.94-6.75c-6.59-11.78-6.59-11.78-9.06-14.25a167 167 0 0 1-3.06-5.44l-1.6-2.93C732 2125 732 2125 731 2122l-2-1-1-4-2-1a169 169 0 0 1-3.81-6.56A323 323 0 0 0 713 2094l-3-5-2-2q-1.95-3.62-3.87-7.25a218 218 0 0 0-5.38-8.94l-1.77-2.8-3.57-5.57c-6.6-10.42-6.6-10.42-4.1-16.75 3.16-5.02 6.94-3.82 12.55-3.82"/><path fill="#ec7c3c" d="m1758.89 2037.63 3.09.06q3.22.08 6.43.2 4.91.15 9.83.25c18.96.5 18.96.5 24.53 7.18 3.02 6.34 2.92 11.64 2.86 18.58l.02 4.24q.02 7.03-.02 14.05l.02 10.08q.02 13.68-.01 27.37-.02 14.3 0 28.63 0 24.03-.04 48.07-.05 24.72-.02 49.45v82.38q.01 13.4-.04 26.8v9.84q.02 6.71-.03 13.42l.03 3.95c-.08 9.07-1.48 15.58-9.54 20.82-8.03 2-16.64 1.18-24.88 1.19l-5.86.03-5.63.01-5.16.01c-6.3-.34-9.43-1.46-14.47-5.24v-2h-2a32 32 0 0 1-2.26-12.03l-.02-3.6.01-3.94-.01-4.21-.01-13.98-.02-10.02q-.03-13.61-.02-27.22l-.02-22.71q-.03-25.26-.02-50.5v-6.13q0-24.6-.05-49.18-.04-25.25-.04-50.5l-.02-28.35q-.03-13.33 0-26.66l-.02-9.79q-.02-6.67 0-13.35l-.03-3.93c.07-8.75 1.03-14.99 8.1-20.88 5.46-2.5 9.32-2.55 15.32-2.4"/><path fill="#ed7c3c" d="M673 2097c2.22 3.3 4.11 6.52 6 10l3.94 6.81c24.32 42.77 24.32 42.77 15.06 63.19l-2 1-2 5q-1.76 3-3.62 5.94c-3.7 5.9-7.19 11.9-10.62 17.97a492 492 0 0 1-7.47 12.53c-9.4 15.5-9.4 15.5-12.85 22.62C657 2247 657 2247 654 2250q-1.94 3.21-3.75 6.5a237 237 0 0 1-7.87 13.19c-2.86 4.4-5.37 8.92-7.85 13.55-2.12 3.83-4.5 7.48-6.88 11.15-2.39 3.78-4.49 7.7-6.65 11.61q-1.95 3.2-3.94 6.38a219 219 0 0 0-7.06 12.12c-2.81 5.25-5.9 10.3-9.05 15.36a504 504 0 0 0-9.86 16.49q-3.1 5.4-6.34 10.71a723 723 0 0 0-10.93 18.82c-8.6 14.73-16.77 18.32-33.38 18.37l-3.44-.02h-3.63l-7.53-.02q-5.79-.03-11.56-.02l-7.34-.02h-3.5c-10.72-.07-10.72-.07-13.19-3.86-2.13-5.64-.36-9.66 2.63-14.65l1.78-3.01 1.9-3.15 3.84-6.45 1.88-3.15c2.8-4.72 5.48-9.5 8.17-14.3 1.55-2.6 1.55-2.6 4.55-6.6 1.8-3.5 3.49-7.04 5.18-10.59A52 52 0 0 1 526 2330l2-5h2l2-5q2.45-4.4 5-8.75l2.97-5.09 5.9-10.01 2.7-4.53 2.43-4.08c2-3.54 2-3.54 4-8.54l2-1a429 429 0 0 0 5-9q1.8-3.13 3.63-6.25l1.72-2.95 4.65-7.8 3.13-5.37a933 933 0 0 1 11.15-18.58C588 2225 588 2225 588 2223l3-3 1-3h2l.78-2.64a44 44 0 0 1 4.66-9.11l2.14-3.41L604 2198c10.9-17.61 10.9-17.61 15.46-26.2 2.7-4.9 5.66-9.65 8.59-14.42C630 2154 630 2154 632 2149h2l1-4q1.51-2.8 3.17-5.5l1.96-3.25 2.06-3.37 2-3.31 3.93-6.48c7.56-12.43 7.56-12.43 9.44-16.28 3.96-7.75 6.28-11.64 15.44-9.81"/><path fill="#000202" d="m511 1805 2 1Zm700-365 2 1Zm-592-58 2 1Zm684-9 2 1Z"/><path fill="#000004" d="m1238 508 2 1Z"/><path fill="#000202" d="m1159 449 2 1ZM313 244l2 1Zm1176-86 2 1ZM1135 15l2 1Z"/></svg>